<?xml version="1.0" encoding="UTF-8" standalone="no"?>
<!DOCTYPE svg PUBLIC "-//W3C//DTD SVG 1.1//EN" "http://www.w3.org/Graphics/SVG/1.1/DTD/svg11.dtd">
<svg width="100%" height="100%" viewBox="0 0 1236 1028" version="1.1" xmlns="http://www.w3.org/2000/svg">
    <g id="background">
        <rect x="0" y="0" width="1236" height="1028" stroke="none" fill="#fff"/>
    </g>
    <g id="curve" fill="none" stroke="#070" stroke-width="5">
        <path d="M140.809,896C150.835,585.362 172.797,303.102 200.138,303.102C217.32,303.102 222.771,436.388 239.375,564.778C254.802,684.068 279.936,799.132 331.064,799.132C395.988,799.132 516.833,671.32 618.084,556.632C692.01,472.896 775.548,385.208 846.286,347.071C921.645,306.441 1030.85,271.318 1161.69,266.718"/>
    </g>
    <g id="axes" fill="none" stroke="#000" stroke-width="5">
        <path d="M134.5,150L134.5,896.5L1183,896.5"/>
    </g>
    <g id="arrowheads" fill="#000" stroke="none">
        <path d="M134.5,139.5L124.966,164.5L144.034,164.5L134.5,139.5Z"/>
        <path d="M1199.5,896.5L1174.5,886.966L1174.5,906.035L1199.5,896.5Z"/>
    </g>
    <!-- THIS APPEARS IN THE GERMAN VERSION OF THIS IMAGE, BUT NOT IN THE ENGLISH VERSION >
    <g id="bracket" fill="none" stroke="#000" stroke-width="3">
        <path d="M295.468,732.5L310.552,732.5C319.906,732.5 327.5,724.906 327.5,715.552L327.5,413.448C327.5,404.094 319.906,396.5 310.552,396.5L295.468,396.5"/>
    </g>
    < -->
    <g id="text" font-family="Arial,sans-serif" font-weight="700">
        <g id="heading" font-size="43">
            <text x="650" y="86" text-anchor="middle">Dunning–Kruger Effect</text>
        </g>
        <g id="axis_labels" font-size="36">
            <text x="80" y="540" text-anchor="middle" transform="rotate(-90,80,540)">Confidence</text>
            <text x="710" y="949" text-anchor="middle">Competence</text>
        </g>
        <g id="annotations" font-size="28">
            <text x="154" y="278">Peak of “Mount Stupid”</text>
            <text x="688" y="554">Slope of Enlightenment</text>
            <text x="1151" y="238" text-anchor="end">Plateau of Sustainability</text>
            <text x="366" y="837" text-anchor="middle">Valley of Despair</text>
            <!-- THIS APPEARS IN THE GERMAN VERSION OF THIS IMAGE, BUT NOT IN THE ENGLISH VERSION >
            <text x="348" y="520">Program</text>
            <text x="348" y="550">Termination</text>
            <text x="348" y="580">Zone</text>
            < -->
        </g>
        <g id="axis_markers" font-size="28">
            <text x="134" y="948">Know nothing</text>
            <text x="1175" y="948" text-anchor="end">Guru</text>
            <text x="68" y="202" text-anchor="middle">High</text>
            <text x="68" y="878" text-anchor="middle">Low</text>
        </g>
    </g>
</svg>